REM DIRINDEX 1\2,1\3,1\4,1\5
REM DIRNAME folder01,folder02,folder03,folder04,folder05
TITLE ""
FILE "P1Q_t_1511-1520.mp3" MP3
  TRACK 01 AUDIO
    TITLE "3:cjc005_5441"
    INDEX 01 00:00:00
  TRACK 02 AUDIO
    TITLE "0:"
    INDEX 01 00:01:07
  TRACK 03 AUDIO
    TITLE "4:cjc005_5442"
    INDEX 01 00:01:38
  TRACK 04 AUDIO
    TITLE "0:"
    INDEX 01 00:02:47
  TRACK 05 AUDIO
    TITLE "5:cjc005_5443"
    INDEX 01 00:02:71
  TRACK 06 AUDIO
    TITLE "0:"
    INDEX 01 00:06:71
  TRACK 07 AUDIO
    TITLE "3:cjc005_5444"
    INDEX 01 00:07:51
  TRACK 08 AUDIO
    TITLE "0:"
    INDEX 01 00:08:73
  TRACK 09 AUDIO
    TITLE "4:cjc005_5445"
    INDEX 01 00:09:26
  TRACK 10 AUDIO
    TITLE "0:"
    INDEX 01 00:10:37
  TRACK 11 AUDIO
    TITLE "5:cjc005_5446"
    INDEX 01 00:10:66
  TRACK 12 AUDIO
    TITLE "0:"
    INDEX 01 00:14:13
  TRACK 13 AUDIO
    TITLE "3:cjc005_5447"
    INDEX 01 00:14:68
  TRACK 14 AUDIO
    TITLE "0:"
    INDEX 01 00:16:02
  TRACK 15 AUDIO
    TITLE "4:cjc005_5448"
    INDEX 01 00:16:30
  TRACK 16 AUDIO
    TITLE "0:"
    INDEX 01 00:17:61
  TRACK 17 AUDIO
    TITLE "5:cjc005_5449"
    INDEX 01 00:18:11
  TRACK 18 AUDIO
    TITLE "0:"
    INDEX 01 00:21:31
  TRACK 19 AUDIO
    TITLE "3:cjc005_5450"
    INDEX 01 00:22:09
  TRACK 20 AUDIO
    TITLE "0:"
    INDEX 01 00:23:22
  TRACK 21 AUDIO
    TITLE "4:cjc005_5451"
    INDEX 01 00:23:51
  TRACK 22 AUDIO
    TITLE "0:"
    INDEX 01 00:25:19
  TRACK 23 AUDIO
    TITLE "5:cjc005_5452"
    INDEX 01 00:25:45
  TRACK 24 AUDIO
    TITLE "0:"
    INDEX 01 00:29:38
  TRACK 25 AUDIO
    TITLE "3:cjc005_5453"
    INDEX 01 00:30:12
  TRACK 26 AUDIO
    TITLE "0:"
    INDEX 01 00:31:22
  TRACK 27 AUDIO
    TITLE "4:cjc005_5454"
    INDEX 01 00:31:53
  TRACK 28 AUDIO
    TITLE "0:"
    INDEX 01 00:32:74
  TRACK 29 AUDIO
    TITLE "5:cjc005_5455"
    INDEX 01 00:33:26
  TRACK 30 AUDIO
    TITLE "0:"
    INDEX 01 00:36:13
  TRACK 31 AUDIO
    TITLE "3:cjc005_5456"
    INDEX 01 00:36:70
  TRACK 32 AUDIO
    TITLE "0:"
    INDEX 01 00:38:02
  TRACK 33 AUDIO
    TITLE "4:cjc005_5457"
    INDEX 01 00:38:31
  TRACK 34 AUDIO
    TITLE "0:"
    INDEX 01 00:39:52
  TRACK 35 AUDIO
    TITLE "5:cjc005_5458"
    INDEX 01 00:40:01
  TRACK 36 AUDIO
    TITLE "0:"
    INDEX 01 00:44:05
  TRACK 37 AUDIO
    TITLE "3:cjc005_5459"
    INDEX 01 00:44:63
  TRACK 38 AUDIO
    TITLE "0:"
    INDEX 01 00:46:06
  TRACK 39 AUDIO
    TITLE "4:cjc005_5460"
    INDEX 01 00:46:27
  TRACK 40 AUDIO
    TITLE "0:"
    INDEX 01 00:48:14
  TRACK 41 AUDIO
    TITLE "5:cjc005_5461"
    INDEX 01 00:48:36
  TRACK 42 AUDIO
    TITLE "0:"
    INDEX 01 00:52:14
  TRACK 43 AUDIO
    TITLE "3:cjc005_5462"
    INDEX 01 00:52:69
  TRACK 44 AUDIO
    TITLE "0:"
    INDEX 01 00:54:11
  TRACK 45 AUDIO
    TITLE "4:cjc005_5463"
    INDEX 01 00:54:40
  TRACK 46 AUDIO
    TITLE "0:"
    INDEX 01 00:56:20
  TRACK 47 AUDIO
    TITLE "5:cjc005_5464"
    INDEX 01 00:56:47
  TRACK 48 AUDIO
    TITLE "0:"
    INDEX 01 01:00:37
  TRACK 49 AUDIO
    TITLE "3:cjc005_5465"
    INDEX 01 01:01:15
  TRACK 50 AUDIO
    TITLE "0:"
    INDEX 01 01:02:28
  TRACK 51 AUDIO
    TITLE "4:cjc005_5466"
    INDEX 01 01:02:55
  TRACK 52 AUDIO
    TITLE "0:"
    INDEX 01 01:04:52
  TRACK 53 AUDIO
    TITLE "5:cjc005_5467"
    INDEX 01 01:04:74
  TRACK 54 AUDIO
    TITLE "0:"
    INDEX 01 01:08:70
  TRACK 55 AUDIO
    TITLE "3:cjc005_5468"
    INDEX 01 01:09:52
  TRACK 56 AUDIO
    TITLE "0:"
    INDEX 01 01:11:13
  TRACK 57 AUDIO
    TITLE "4:cjc005_5469"
    INDEX 01 01:11:37
  TRACK 58 AUDIO
    TITLE "0:"
    INDEX 01 01:12:56
  TRACK 59 AUDIO
    TITLE "5:cjc005_5470"
    INDEX 01 01:13:00
  TRACK 60 AUDIO
    TITLE "0:"
    INDEX 01 01:17:10
